REM DIRINDEX 1\2\4\8,1\2\4\9,1\2\4\10,1\2\5\11,1\2\5\12,1\2\5\13,1\2\5\14,1\2\5\15,1\3\6\16,1\3\6\17,1\3\6\18,1\3\7\19,1\3\7\20,1\3\7\21,1\3\7\22,1\3\7\23
REM DIRNAME "folder01","folder02","folder03","folder04","folder05","folder06","folder07","folder08","folder09","folder10","folder11","folder12","folder13","folder14","folder15","folder16","folder17","folder18","folder19","folder20","folder21","folder22","folder23"
TITLE ""
FILE "LR_black_phrase_E_B02.mp3" MP3
  TRACK 01 AUDIO
    TITLE "0:"
    INDEX 01 00:00:00
  TRACK 02 AUDIO
    TITLE "16:cjc171_08991"
    INDEX 01 00:00:18
  TRACK 03 AUDIO
    TITLE "0:"
    INDEX 01 00:01:33
  TRACK 04 AUDIO
    TITLE "17:cjc171_08992"
    INDEX 01 00:01:63
  TRACK 05 AUDIO
    TITLE "0:"
    INDEX 01 00:04:20
  TRACK 06 AUDIO
    TITLE "18:cjc171_08993"
    INDEX 01 00:04:67
  TRACK 07 AUDIO
    TITLE "0:"
    INDEX 01 00:07:18
  TRACK 08 AUDIO
    TITLE "16:cjc171_08994"
    INDEX 01 00:08:22
  TRACK 09 AUDIO
    TITLE "0:"
    INDEX 01 00:09:41
  TRACK 10 AUDIO
    TITLE "17:cjc171_08995"
    INDEX 01 00:09:70
  TRACK 11 AUDIO
    TITLE "0:"
    INDEX 01 00:11:51
  TRACK 12 AUDIO
    TITLE "18:cjc171_08996"
    INDEX 01 00:12:29
  TRACK 13 AUDIO
    TITLE "0:"
    INDEX 01 00:14:12
  TRACK 14 AUDIO
    TITLE "16:cjc171_08997"
    INDEX 01 00:15:16
  TRACK 15 AUDIO
    TITLE "0:"
    INDEX 01 00:16:35
  TRACK 16 AUDIO
    TITLE "17:cjc171_08998"
    INDEX 01 00:16:62
  TRACK 17 AUDIO
    TITLE "0:"
    INDEX 01 00:18:53
  TRACK 18 AUDIO
    TITLE "18:cjc171_08999"
    INDEX 01 00:19:29
  TRACK 19 AUDIO
    TITLE "0:"
    INDEX 01 00:21:18
  TRACK 20 AUDIO
    TITLE "16:cjc171_09000"
    INDEX 01 00:22:22
  TRACK 21 AUDIO
    TITLE "0:"
    INDEX 01 00:23:41
  TRACK 22 AUDIO
    TITLE "17:cjc171_09001"
    INDEX 01 00:23:72
  TRACK 23 AUDIO
    TITLE "0:"
    INDEX 01 00:26:51
  TRACK 24 AUDIO
    TITLE "18:cjc171_09002"
    INDEX 01 00:27:29
  TRACK 25 AUDIO
    TITLE "0:"
    INDEX 01 00:30:09
  TRACK 26 AUDIO
    TITLE "16:cjc171_09003"
    INDEX 01 00:31:13
  TRACK 27 AUDIO
    TITLE "0:"
    INDEX 01 00:32:20
  TRACK 28 AUDIO
    TITLE "17:cjc171_09004"
    INDEX 01 00:32:42
  TRACK 29 AUDIO
    TITLE "0:"
    INDEX 01 00:34:29
  TRACK 30 AUDIO
    TITLE "18:cjc171_09005"
    INDEX 01 00:35:07
  TRACK 31 AUDIO
    TITLE "0:"
    INDEX 01 00:36:69
  TRACK 32 AUDIO
    TITLE "16:cjc171_09006"
    INDEX 01 00:37:72
  TRACK 33 AUDIO
    TITLE "0:"
    INDEX 01 00:39:12
  TRACK 34 AUDIO
    TITLE "17:cjc171_09007"
    INDEX 01 00:39:32
  TRACK 35 AUDIO
    TITLE "0:"
    INDEX 01 00:41:70
  TRACK 36 AUDIO
    TITLE "18:cjc171_09008"
    INDEX 01 00:42:34
  TRACK 37 AUDIO
    TITLE "0:"
    INDEX 01 00:44:72
  TRACK 38 AUDIO
    TITLE "16:cjc171_09009"
    INDEX 01 00:45:70
  TRACK 39 AUDIO
    TITLE "0:"
    INDEX 01 00:47:29
  TRACK 40 AUDIO
    TITLE "17:cjc171_09010"
    INDEX 01 00:47:59
  TRACK 41 AUDIO
    TITLE "0:"
    INDEX 01 00:49:70
  TRACK 42 AUDIO
    TITLE "18:cjc171_09011"
    INDEX 01 00:50:49
  TRACK 43 AUDIO
    TITLE "0:"
    INDEX 01 00:52:60
  TRACK 44 AUDIO
    TITLE "16:cjc171_09012"
    INDEX 01 00:53:65
  TRACK 45 AUDIO
    TITLE "0:"
    INDEX 01 00:55:07
  TRACK 46 AUDIO
    TITLE "17:cjc171_09013"
    INDEX 01 00:55:37
  TRACK 47 AUDIO
    TITLE "0:"
    INDEX 01 00:58:19
  TRACK 48 AUDIO
    TITLE "18:cjc171_09014"
    INDEX 01 00:58:74
  TRACK 49 AUDIO
    TITLE "0:"
    INDEX 01 01:01:57
  TRACK 50 AUDIO
    TITLE "16:cjc171_09015"
    INDEX 01 01:02:62
  TRACK 51 AUDIO
    TITLE "0:"
    INDEX 01 01:04:04
  TRACK 52 AUDIO
    TITLE "17:cjc171_09016"
    INDEX 01 01:04:32
  TRACK 53 AUDIO
    TITLE "0:"
    INDEX 01 01:06:33
  TRACK 54 AUDIO
    TITLE "18:cjc171_09017"
    INDEX 01 01:07:13
  TRACK 55 AUDIO
    TITLE "0:"
    INDEX 01 01:09:13
  TRACK 56 AUDIO
    TITLE "16:cjc171_09018"
    INDEX 01 01:10:17
  TRACK 57 AUDIO
    TITLE "0:"
    INDEX 01 01:11:32
  TRACK 58 AUDIO
    TITLE "17:cjc171_09019"
    INDEX 01 01:11:63
  TRACK 59 AUDIO
    TITLE "0:"
    INDEX 01 01:15:22
  TRACK 60 AUDIO
    TITLE "18:cjc171_09020"
    INDEX 01 01:15:73
  TRACK 61 AUDIO
    TITLE "0:"
    INDEX 01 01:19:31
  TRACK 62 AUDIO
    TITLE "16:cjc171_09021"
    INDEX 01 01:20:33
  TRACK 63 AUDIO
    TITLE "0:"
    INDEX 01 01:21:42
  TRACK 64 AUDIO
    TITLE "17:cjc171_09022"
    INDEX 01 01:21:73
  TRACK 65 AUDIO
    TITLE "0:"
    INDEX 01 01:24:05
  TRACK 66 AUDIO
    TITLE "18:cjc171_09023"
    INDEX 01 01:24:62
  TRACK 67 AUDIO
    TITLE "0:"
    INDEX 01 01:26:69
  TRACK 68 AUDIO
    TITLE "16:cjc171_09024"
    INDEX 01 01:27:72
  TRACK 69 AUDIO
    TITLE "0:"
    INDEX 01 01:29:26
  TRACK 70 AUDIO
    TITLE "17:cjc171_09025"
    INDEX 01 01:29:55
  TRACK 71 AUDIO
    TITLE "0:"
    INDEX 01 01:32:32
  TRACK 72 AUDIO
    TITLE "18:cjc171_09026"
    INDEX 01 01:33:12
  TRACK 73 AUDIO
    TITLE "0:"
    INDEX 01 01:35:66
  TRACK 74 AUDIO
    TITLE "16:cjc171_09027"
    INDEX 01 01:36:69
  TRACK 75 AUDIO
    TITLE "0:"
    INDEX 01 01:38:15
  TRACK 76 AUDIO
    TITLE "17:cjc171_09028"
    INDEX 01 01:38:46
  TRACK 77 AUDIO
    TITLE "0:"
    INDEX 01 01:40:67
  TRACK 78 AUDIO
    TITLE "18:cjc171_09029"
    INDEX 01 01:41:47
  TRACK 79 AUDIO
    TITLE "0:"
    INDEX 01 01:43:67
  TRACK 80 AUDIO
    TITLE "16:cjc171_09030"
    INDEX 01 01:44:72
  TRACK 81 AUDIO
    TITLE "0:"
    INDEX 01 01:46:20
  TRACK 82 AUDIO
    TITLE "17:cjc171_09031"
    INDEX 01 01:46:50
  TRACK 83 AUDIO
    TITLE "0:"
    INDEX 01 01:48:60
  TRACK 84 AUDIO
    TITLE "18:cjc171_09032"
    INDEX 01 01:49:36
  TRACK 85 AUDIO
    TITLE "0:"
    INDEX 01 01:51:45
  TRACK 86 AUDIO
    TITLE "16:cjc171_09033"
    INDEX 01 01:52:50
  TRACK 87 AUDIO
    TITLE "0:"
    INDEX 01 01:54:06
  TRACK 88 AUDIO
    TITLE "17:cjc171_09034"
    INDEX 01 01:54:36
  TRACK 89 AUDIO
    TITLE "0:"
    INDEX 01 01:56:37
  TRACK 90 AUDIO
    TITLE "18:cjc171_09035"
    INDEX 01 01:57:14
  TRACK 91 AUDIO
    TITLE "0:"
    INDEX 01 01:59:15
  TRACK 92 AUDIO
    TITLE "16:cjc171_09036"
    INDEX 01 02:00:21
  TRACK 93 AUDIO
    TITLE "0:"
    INDEX 01 02:01:26
  TRACK 94 AUDIO
    TITLE "17:cjc171_09037"
    INDEX 01 02:01:55
  TRACK 95 AUDIO
    TITLE "0:"
    INDEX 01 02:03:35
  TRACK 96 AUDIO
    TITLE "18:cjc171_09038"
    INDEX 01 02:04:14
  TRACK 97 AUDIO
    TITLE "0:"
    INDEX 01 02:05:69
  TRACK 98 AUDIO
    TITLE "16:cjc171_09039"
    INDEX 01 02:06:74
  TRACK 99 AUDIO
    TITLE "0:"
    INDEX 01 02:08:18
  TRACK 100 AUDIO
    TITLE "17:cjc171_09040"
    INDEX 01 02:08:48
  TRACK 101 AUDIO
    TITLE "0:"
    INDEX 01 02:11:09
  TRACK 102 AUDIO
    TITLE "18:cjc171_09041"
    INDEX 01 02:11:60
  TRACK 103 AUDIO
    TITLE "0:"
    INDEX 01 02:14:21
  TRACK 104 AUDIO
    TITLE "16:cjc171_09042"
    INDEX 01 02:15:22
  TRACK 105 AUDIO
    TITLE "0:"
    INDEX 01 02:16:45
  TRACK 106 AUDIO
    TITLE "17:cjc171_09043"
    INDEX 01 02:16:74
  TRACK 107 AUDIO
    TITLE "0:"
    INDEX 01 02:19:41
  TRACK 108 AUDIO
    TITLE "18:cjc171_09044"
    INDEX 01 02:20:19
  TRACK 109 AUDIO
    TITLE "0:"
    INDEX 01 02:22:61
  TRACK 110 AUDIO
    TITLE "16:cjc171_09045"
    INDEX 01 02:23:65
  TRACK 111 AUDIO
    TITLE "0:"
    INDEX 01 02:25:15
  TRACK 112 AUDIO
    TITLE "17:cjc171_09046"
    INDEX 01 02:25:44
  TRACK 113 AUDIO
    TITLE "0:"
    INDEX 01 02:27:29
  TRACK 114 AUDIO
    TITLE "18:cjc171_09047"
    INDEX 01 02:28:07
  TRACK 115 AUDIO
    TITLE "0:"
    INDEX 01 02:29:65
  TRACK 116 AUDIO
    TITLE "16:cjc171_09048"
    INDEX 01 02:30:69
  TRACK 117 AUDIO
    TITLE "0:"
    INDEX 01 02:32:30
  TRACK 118 AUDIO
    TITLE "17:cjc171_09049"
    INDEX 01 02:32:60
  TRACK 119 AUDIO
    TITLE "0:"
    INDEX 01 02:34:70
  TRACK 120 AUDIO
    TITLE "18:cjc171_09050"
    INDEX 01 02:35:50
  TRACK 121 AUDIO
    TITLE "0:"
    INDEX 01 02:37:61
  TRACK 122 AUDIO
    TITLE "16:cjc171_09051"
    INDEX 01 02:38:66
  TRACK 123 AUDIO
    TITLE "0:"
    INDEX 01 02:39:66
  TRACK 124 AUDIO
    TITLE "17:cjc171_09052"
    INDEX 01 02:40:20
  TRACK 125 AUDIO
    TITLE "0:"
    INDEX 01 02:42:37
  TRACK 126 AUDIO
    TITLE "18:cjc171_09053"
    INDEX 01 02:43:15
  TRACK 127 AUDIO
    TITLE "0:"
    INDEX 01 02:45:31
  TRACK 128 AUDIO
    TITLE "16:cjc171_09054"
    INDEX 01 02:46:34
  TRACK 129 AUDIO
    TITLE "0:"
    INDEX 01 02:47:63
  TRACK 130 AUDIO
    TITLE "17:cjc171_09055"
    INDEX 01 02:48:10
  TRACK 131 AUDIO
    TITLE "0:"
    INDEX 01 02:50:11
  TRACK 132 AUDIO
    TITLE "18:cjc171_09056"
    INDEX 01 02:50:60
  TRACK 133 AUDIO
    TITLE "0:"
    INDEX 01 02:52:61
  TRACK 134 AUDIO
    TITLE "16:cjc171_09057"
    INDEX 01 02:53:64
  TRACK 135 AUDIO
    TITLE "0:"
    INDEX 01 02:55:06
  TRACK 136 AUDIO
    TITLE "17:cjc171_09058"
    INDEX 01 02:55:37
  TRACK 137 AUDIO
    TITLE "0:"
    INDEX 01 02:57:62
  TRACK 138 AUDIO
    TITLE "18:cjc171_09059"
    INDEX 01 02:58:40
  TRACK 139 AUDIO
    TITLE "0:"
    INDEX 01 03:00:64
  TRACK 140 AUDIO
    TITLE "16:cjc171_09060"
    INDEX 01 03:01:67
  TRACK 141 AUDIO
    TITLE "0:"
    INDEX 01 03:03:15
  TRACK 142 AUDIO
    TITLE "17:cjc171_09061"
    INDEX 01 03:03:45
  TRACK 143 AUDIO
    TITLE "0:"
    INDEX 01 03:05:57
  TRACK 144 AUDIO
    TITLE "18:cjc171_09062"
    INDEX 01 03:06:37
  TRACK 145 AUDIO
    TITLE "0:"
    INDEX 01 03:08:50
  TRACK 146 AUDIO
    TITLE "16:cjc171_09063"
    INDEX 01 03:09:53
  TRACK 147 AUDIO
    TITLE "0:"
    INDEX 01 03:10:68
  TRACK 148 AUDIO
    TITLE "17:cjc171_09064"
    INDEX 01 03:11:21
  TRACK 149 AUDIO
    TITLE "0:"
    INDEX 01 03:13:22
  TRACK 150 AUDIO
    TITLE "18:cjc171_09065"
    INDEX 01 03:14:01
  TRACK 151 AUDIO
    TITLE "0:"
    INDEX 01 03:16:06
  TRACK 152 AUDIO
    TITLE "16:cjc171_09066"
    INDEX 01 03:17:10
  TRACK 153 AUDIO
    TITLE "0:"
    INDEX 01 03:18:17
  TRACK 154 AUDIO
    TITLE "17:cjc171_09067"
    INDEX 01 03:18:48
  TRACK 155 AUDIO
    TITLE "0:"
    INDEX 01 03:20:39
  TRACK 156 AUDIO
    TITLE "18:cjc171_09068"
    INDEX 01 03:21:17
  TRACK 157 AUDIO
    TITLE "0:"
    INDEX 01 03:23:10
  TRACK 158 AUDIO
    TITLE "16:cjc171_09069"
    INDEX 01 03:24:12
  TRACK 159 AUDIO
    TITLE "0:"
    INDEX 01 03:25:34
  TRACK 160 AUDIO
    TITLE "17:cjc171_09070"
    INDEX 01 03:25:66
  TRACK 161 AUDIO
    TITLE "0:"
    INDEX 01 03:28:07
  TRACK 162 AUDIO
    TITLE "18:cjc171_09071"
    INDEX 01 03:28:62
  TRACK 163 AUDIO
    TITLE "0:"
    INDEX 01 03:31:06
  TRACK 164 AUDIO
    TITLE "16:cjc171_09072"
    INDEX 01 03:32:09
  TRACK 165 AUDIO
    TITLE "0:"
    INDEX 01 03:33:32
  TRACK 166 AUDIO
    TITLE "17:cjc171_09073"
    INDEX 01 03:33:57
  TRACK 167 AUDIO
    TITLE "0:"
    INDEX 01 03:36:70
  TRACK 168 AUDIO
    TITLE "18:cjc171_09074"
    INDEX 01 03:37:40
  TRACK 169 AUDIO
    TITLE "0:"
    INDEX 01 03:40:52
  TRACK 170 AUDIO
    TITLE "16:cjc171_09075"
    INDEX 01 03:41:47
  TRACK 171 AUDIO
    TITLE "0:"
    INDEX 01 03:42:58
  TRACK 172 AUDIO
    TITLE "17:cjc171_09076"
    INDEX 01 03:43:07
  TRACK 173 AUDIO
    TITLE "0:"
    INDEX 01 03:45:63
  TRACK 174 AUDIO
    TITLE "18:cjc171_09077"
    INDEX 01 03:46:43
  TRACK 175 AUDIO
    TITLE "0:"
    INDEX 01 03:49:19
  TRACK 176 AUDIO
    TITLE "16:cjc171_09078"
    INDEX 01 03:50:19
  TRACK 177 AUDIO
    TITLE "0:"
    INDEX 01 03:51:28
  TRACK 178 AUDIO
    TITLE "17:cjc171_09079"
    INDEX 01 03:51:53
  TRACK 179 AUDIO
    TITLE "0:"
    INDEX 01 03:53:60
  TRACK 180 AUDIO
    TITLE "18:cjc171_09080"
    INDEX 01 03:54:46
  TRACK 181 AUDIO
    TITLE "0:"
    INDEX 01 03:56:62
